<mxfile host="65bd71144e">
    <diagram id="RS0syd086Za-puUE_yWG" name="Page-1">
        <mxGraphModel dx="924" dy="346" grid="0" gridSize="10" guides="1" tooltips="1" connect="1" arrows="1" fold="1" page="1" pageScale="1" pageWidth="850" pageHeight="1100" background="#fffafa" math="0" shadow="0">
            <root>
                <mxCell id="0"/>
                <mxCell id="1" parent="0"/>
                <mxCell id="2" value="VPC" style="points=[[0,0],[0.25,0],[0.5,0],[0.75,0],[1,0],[1,0.25],[1,0.5],[1,0.75],[1,1],[0.75,1],[0.5,1],[0.25,1],[0,1],[0,0.75],[0,0.5],[0,0.25]];outlineConnect=0;gradientColor=none;html=1;whiteSpace=wrap;fontSize=12;fontStyle=0;container=1;pointerEvents=0;collapsible=0;recursiveResize=0;shape=mxgraph.aws4.group;grIcon=mxgraph.aws4.group_vpc;strokeColor=#248814;fillColor=none;verticalAlign=top;align=left;spacingLeft=30;fontColor=#070808;dashed=0;" parent="1" vertex="1">
                    <mxGeometry x="100" y="100" width="590" height="360" as="geometry"/>
                </mxCell>
                <mxCell id="3" value="Availability Zone" style="fillColor=none;strokeColor=#147EBA;dashed=1;verticalAlign=top;fontStyle=0;fontColor=#147EBA;" parent="2" vertex="1">
                    <mxGeometry x="211" y="20" width="344" height="300" as="geometry"/>
                </mxCell>
                <mxCell id="8" value="" style="edgeStyle=orthogonalEdgeStyle;html=1;fontColor=#eef2f7;strokeColor=#222020;" parent="2" source="4" target="6" edge="1">
                    <mxGeometry relative="1" as="geometry"/>
                </mxCell>
                <mxCell id="4" value="Subnet" style="sketch=0;outlineConnect=0;gradientColor=none;html=1;whiteSpace=wrap;fontSize=12;fontStyle=0;shape=mxgraph.aws4.group;grIcon=mxgraph.aws4.group_subnet;strokeColor=#879196;fillColor=none;verticalAlign=top;align=left;spacingLeft=30;fontColor=#879196;dashed=0;" parent="2" vertex="1">
                    <mxGeometry x="288" y="55" width="232" height="250" as="geometry"/>
                </mxCell>
                <mxCell id="5" value="Internet Gateway" style="outlineConnect=0;dashed=0;verticalLabelPosition=bottom;verticalAlign=top;align=center;html=1;shape=mxgraph.aws3.internet_gateway;fillColor=#F58534;gradientColor=none;strokeColor=#272525;fontColor=#121111;" parent="2" vertex="1">
                    <mxGeometry x="39" y="40" width="50" height="60" as="geometry"/>
                </mxCell>
                <mxCell id="7" value="" style="edgeStyle=orthogonalEdgeStyle;html=1;fontColor=#0d0c0c;strokeColor=#1a1919;" parent="2" source="6" target="5" edge="1">
                    <mxGeometry relative="1" as="geometry"/>
                </mxCell>
                <mxCell id="6" value="Route table" style="sketch=0;outlineConnect=0;fontColor=#0f0f10;gradientColor=none;strokeColor=#232F3E;fillColor=#ffffff;dashed=0;verticalLabelPosition=bottom;verticalAlign=top;align=center;html=1;fontSize=12;fontStyle=0;aspect=fixed;shape=mxgraph.aws4.resourceIcon;resIcon=mxgraph.aws4.route_table;" parent="2" vertex="1">
                    <mxGeometry x="139" y="40" width="60" height="60" as="geometry"/>
                </mxCell>
                <mxCell id="10" value="Elastic IP" style="sketch=0;outlineConnect=0;fontColor=#19191a;gradientColor=none;fillColor=#D45B07;strokeColor=none;dashed=0;verticalLabelPosition=bottom;verticalAlign=top;align=center;html=1;fontSize=12;fontStyle=0;aspect=fixed;pointerEvents=1;shape=mxgraph.aws4.elastic_ip_address;direction=west;" parent="2" vertex="1">
                    <mxGeometry x="77" y="234" width="48" height="20" as="geometry"/>
                </mxCell>
                <mxCell id="11" style="edgeStyle=orthogonalEdgeStyle;html=1;fontColor=#eef2f7;strokeColor=#100f0f;" parent="2" source="9" target="10" edge="1">
                    <mxGeometry relative="1" as="geometry"/>
                </mxCell>
                <mxCell id="9" value="Nat gateway" style="sketch=0;outlineConnect=0;fontColor=#0d0d0d;gradientColor=none;fillColor=#4D27AA;strokeColor=none;dashed=0;verticalLabelPosition=bottom;verticalAlign=top;align=center;html=1;fontSize=12;fontStyle=0;aspect=fixed;pointerEvents=1;shape=mxgraph.aws4.nat_gateway;direction=west;" parent="2" vertex="1">
                    <mxGeometry x="315" y="220" width="48" height="48" as="geometry"/>
                </mxCell>
                <mxCell id="14" value="Security Group" style="fontStyle=0;verticalAlign=top;align=center;spacingTop=-2;fillColor=none;rounded=0;whiteSpace=wrap;html=1;strokeColor=#FF0000;strokeWidth=2;dashed=1;container=1;collapsible=0;expand=0;recursiveResize=0;fontColor=#030303;" parent="2" vertex="1">
                    <mxGeometry x="398" y="64" width="110" height="218" as="geometry"/>
                </mxCell>
                <mxCell id="15" value="EC2 Instance 1" style="verticalLabelPosition=bottom;html=1;verticalAlign=top;strokeWidth=1;align=center;outlineConnect=0;dashed=0;outlineConnect=0;shape=mxgraph.aws3d.application_server;fillColor=#ECECEC;strokeColor=#5E5E5E;aspect=fixed;fontColor=#0f1010;" parent="14" vertex="1">
                    <mxGeometry x="30" y="38.8" width="59.72" height="60.2" as="geometry"/>
                </mxCell>
                <mxCell id="16" value="EC2 Instance 2" style="verticalLabelPosition=bottom;html=1;verticalAlign=top;strokeWidth=1;align=center;outlineConnect=0;dashed=0;outlineConnect=0;shape=mxgraph.aws3d.application_server;fillColor=#ECECEC;strokeColor=#5E5E5E;aspect=fixed;fontColor=#0f1010;" vertex="1" parent="14">
                    <mxGeometry x="28" y="131" width="59.72" height="60.2" as="geometry"/>
                </mxCell>
            </root>
        </mxGraphModel>
    </diagram>
</mxfile>